<svg xmlns="http://www.w3.org/2000/svg" viewBox="0 0 64 64" shape-rendering="crispEdges"><rect x="16" y="58" width="32" height="3" fill="#16191d"/><rect x="20" y="61" width="24" height="2" fill="#0b0c0e"/><rect x="21" y="47" width="7" height="12" fill="#3a3028"/><rect x="37" y="47" width="7" height="12" fill="#3a3028"/><rect x="20" y="57" width="9" height="3" fill="#201b18"/><rect x="36" y="57" width="9" height="3" fill="#201b18"/><rect x="17" y="31" width="30" height="18" fill="#4d7c59" stroke="#25282c" stroke-width="2"/><rect x="12" y="33" width="5" height="14" fill="#4d7c59"/><rect x="47" y="33" width="5" height="14" fill="#4d7c59"/><rect x="17" y="39" width="30" height="4" fill="#b48bd6"/><rect x="29" y="31" width="6" height="3" fill="#b48bd6"/><rect x="22" y="14" width="20" height="18" fill="#c9956c" stroke="#7b4e38" stroke-width="2"/><rect x="26" y="22" width="3" height="3" fill="#17191b"/><rect x="35" y="22" width="3" height="3" fill="#17191b"/><rect x="30" y="28" width="4" height="2" fill="#7b4e38"/><rect x="22" y="12" width="20" height="5" fill="#4a2f23"/><rect x="22" y="15" width="4" height="5" fill="#4a2f23"/><rect x="49" y="35" width="8" height="13" fill="#8b61a8" stroke="#39284b" stroke-width="2"/><rect x="51" y="31" width="4" height="5" fill="#d7d0c6"/><rect x="51" y="40" width="4" height="5" fill="#e06bc8"/></svg>