<svg xmlns="http://www.w3.org/2000/svg" viewBox="0 0 64 64" shape-rendering="crispEdges"><rect x="16" y="58" width="32" height="3" fill="#16191d"/><rect x="20" y="61" width="24" height="2" fill="#0b0c0e"/><rect x="22" y="47" width="7" height="12" fill="#3a3028"/><rect x="36" y="47" width="7" height="12" fill="#3a3028"/><rect x="21" y="57" width="9" height="3" fill="#201b18"/><rect x="35" y="57" width="9" height="3" fill="#201b18"/><rect x="18" y="31" width="28" height="18" fill="#ddd5bd" stroke="#25282c" stroke-width="2"/><rect x="13" y="33" width="5" height="14" fill="#ddd5bd"/><rect x="46" y="33" width="5" height="14" fill="#ddd5bd"/><rect x="18" y="39" width="28" height="4" fill="#d7ae42"/><rect x="27" y="31" width="10" height="3" fill="#d7ae42"/><rect x="23" y="13" width="18" height="18" fill="#42464d" stroke="#24272b" stroke-width="2"/><polygon points="25,23 32,31 39,23" fill="#d2ad58"/><rect x="26" y="18" width="3" height="3" fill="#e8d96c"/><rect x="35" y="18" width="3" height="3" fill="#e8d96c"/><rect x="49" y="35" width="9" height="9" fill="#e2ba47" stroke="#806423" stroke-width="2"/><rect x="52" y="31" width="3" height="17" fill="#f4d97b"/><rect x="45" y="38" width="17" height="3" fill="#f4d97b"/></svg>