<svg xmlns="http://www.w3.org/2000/svg" viewBox="0 0 64 64" shape-rendering="crispEdges"><rect x="16" y="58" width="32" height="3" fill="#16191d"/><rect x="20" y="61" width="24" height="2" fill="#0b0c0e"/><rect x="22" y="47" width="7" height="12" fill="#3a3028"/><rect x="36" y="47" width="7" height="12" fill="#3a3028"/><rect x="21" y="57" width="9" height="3" fill="#201b18"/><rect x="35" y="57" width="9" height="3" fill="#201b18"/><rect x="18" y="31" width="28" height="18" fill="#8b5b3e" stroke="#25282c" stroke-width="2"/><rect x="13" y="33" width="5" height="14" fill="#8b5b3e"/><rect x="46" y="33" width="5" height="14" fill="#8b5b3e"/><rect x="18" y="39" width="28" height="4" fill="#e0c090"/><rect x="27" y="31" width="10" height="3" fill="#e0c090"/><rect x="23" y="13" width="18" height="18" fill="#b49a71" stroke="#695743" stroke-width="2"/><rect x="27" y="21" width="3" height="3" fill="#17191b"/><rect x="34" y="21" width="3" height="3" fill="#17191b"/><rect x="30" y="27" width="4" height="2" fill="#695743"/><polygon points="25,15 28,6 32,16" fill="#b49a71"/><polygon points="39,15 36,6 32,16" fill="#b49a71"/><rect x="28" y="28" width="8" height="3" fill="#f0d9b0"/><rect x="47" y="36" width="9" height="10" fill="#b87b45" stroke="#4a3222" stroke-width="2"/><rect x="55" y="38" width="5" height="6" fill="none" stroke="#b87b45" stroke-width="2"/></svg>