<svg xmlns="http://www.w3.org/2000/svg" viewBox="0 0 64 64" shape-rendering="crispEdges"><g transform="matrix(1.1800 0 0 1.1154 -12.8400 -7.2692)"><rect x="16" y="58" width="32" height="3" fill="#16191d"/><rect x="20" y="61" width="24" height="2" fill="#0b0c0e"/><rect x="25" y="47" width="7" height="12" fill="#3a3028"/><rect x="34" y="47" width="7" height="12" fill="#3a3028"/><rect x="24" y="57" width="9" height="3" fill="#201b18"/><rect x="33" y="57" width="9" height="3" fill="#201b18"/><rect x="22" y="31" width="20" height="18" fill="#8b5b3e" stroke="#25282c" stroke-width="2"/><rect x="17" y="33" width="5" height="14" fill="#8b5b3e"/><rect x="42" y="33" width="5" height="14" fill="#8b5b3e"/><rect x="22" y="39" width="20" height="4" fill="#e0c090"/><rect x="29" y="31" width="6" height="3" fill="#e0c090"/><rect x="24" y="12" width="16" height="19" fill="#d5b98b" stroke="#8d7355" stroke-width="2"/><rect x="28" y="20" width="3" height="3" fill="#17191b"/><rect x="33" y="20" width="3" height="3" fill="#17191b"/><rect x="30" y="26" width="4" height="2" fill="#8d7355"/><rect x="24" y="11" width="16" height="4" fill="#7b5a3d"/><rect x="24" y="14" width="3" height="8" fill="#7b5a3d"/><polygon points="24,19 17,21 24,24" fill="#d5b98b"/><polygon points="40,19 47,21 40,24" fill="#d5b98b"/><rect x="47" y="36" width="9" height="10" fill="#b87b45" stroke="#4a3222" stroke-width="2"/><rect x="55" y="38" width="5" height="6" fill="none" stroke="#b87b45" stroke-width="2"/></g></svg>