<svg xmlns="http://www.w3.org/2000/svg" viewBox="0 0 64 64" shape-rendering="crispEdges"><g transform="matrix(1.1800 0 0 1.1200 -11.6600 -7.5600)"><rect x="16" y="58" width="32" height="3" fill="#16191d"/><rect x="20" y="61" width="24" height="2" fill="#0b0c0e"/><rect x="24" y="47" width="7" height="12" fill="#3a3028"/><rect x="34" y="47" width="7" height="12" fill="#3a3028"/><rect x="23" y="57" width="9" height="3" fill="#201b18"/><rect x="33" y="57" width="9" height="3" fill="#201b18"/><rect x="21" y="31" width="22" height="18" fill="#55417b" stroke="#25282c" stroke-width="2"/><rect x="16" y="33" width="5" height="14" fill="#55417b"/><rect x="43" y="33" width="5" height="14" fill="#55417b"/><rect x="21" y="39" width="22" height="4" fill="#62cbd1"/><rect x="28" y="31" width="8" height="3" fill="#62cbd1"/><rect x="23" y="13" width="18" height="18" fill="#a8a7a1" stroke="#686965" stroke-width="2"/><rect x="27" y="21" width="3" height="3" fill="#17191b"/><rect x="34" y="21" width="3" height="3" fill="#17191b"/><rect x="30" y="27" width="4" height="2" fill="#686965"/><rect x="21" y="12" width="22" height="5" fill="#3a3b3d"/><rect x="21" y="16" width="4" height="17" fill="#3a3b3d"/><rect x="39" y="16" width="4" height="17" fill="#3a3b3d"/><rect x="26" y="15" width="3" height="2" fill="#686965"/><rect x="35" y="15" width="3" height="2" fill="#686965"/><rect x="31" y="17" width="2" height="3" fill="#686965"/><rect x="52" y="22" width="3" height="31" fill="#845a35"/><rect x="49" y="18" width="9" height="9" fill="#58cfd7" stroke="#284d55" stroke-width="2"/><rect x="52" y="20" width="3" height="3" fill="#e6ffff"/><rect x="30" y="42" width="4" height="4" fill="#56d8dc"/></g></svg>