<svg xmlns="http://www.w3.org/2000/svg" viewBox="0 0 64 64" shape-rendering="crispEdges"><g transform="matrix(1.1800 0 0 1.1200 -11.6600 -7.5600)"><rect x="16" y="58" width="32" height="3" fill="#151515"/><rect x="20" y="61" width="24" height="2" fill="#0a0a0a"/><rect x="24" y="47" width="7" height="12" fill="#3a3028"/><rect x="34" y="47" width="7" height="12" fill="#3a3028"/><rect x="23" y="57" width="9" height="3" fill="#201b18"/><rect x="33" y="57" width="9" height="3" fill="#201b18"/><rect x="21" y="31" width="22" height="18" fill="#333845" stroke="#25282c" stroke-width="2"/><rect x="16" y="33" width="5" height="14" fill="#333845"/><rect x="43" y="33" width="5" height="14" fill="#333845"/><rect x="21" y="39" width="22" height="4" fill="#755b8e"/><rect x="28" y="31" width="8" height="3" fill="#755b8e"/><rect x="23" y="13" width="18" height="18" fill="#e5decf" stroke="#8f8778" stroke-width="2"/><rect x="27" y="21" width="3" height="3" fill="#17191b"/><rect x="34" y="21" width="3" height="3" fill="#17191b"/><rect x="31" y="23" width="2" height="3" fill="#17191b"/><rect x="28" y="27" width="8" height="3" fill="#c8c0b0" stroke="#8f8778" stroke-width="1"/><rect x="29" y="28" width="1" height="2" fill="#8f8778"/><rect x="31" y="28" width="1" height="2" fill="#8f8778"/><rect x="33" y="28" width="1" height="2" fill="#8f8778"/><rect x="21" y="12" width="22" height="5" fill="#c8c0b0"/><rect x="21" y="16" width="4" height="17" fill="#c8c0b0"/><rect x="39" y="16" width="4" height="17" fill="#c8c0b0"/><polygon points="48,48 56,32 58,34 52,49" fill="#c7cbd0"/><rect x="49" y="47" width="9" height="3" fill="#75513a"/><polygon points="20,15 44,15 41,22 23,22" fill="#262a33"/></g></svg>