<svg xmlns="http://www.w3.org/2000/svg" viewBox="0 0 64 64" shape-rendering="crispEdges"><g transform="matrix(1.1800 0 0 1.0000 -11.6600 0.0000)"><rect x="16" y="58" width="32" height="3" fill="#16191d"/><rect x="20" y="61" width="24" height="2" fill="#0b0c0e"/><rect x="25" y="47" width="7" height="12" fill="#3a3028"/><rect x="34" y="47" width="7" height="12" fill="#3a3028"/><rect x="24" y="57" width="9" height="3" fill="#201b18"/><rect x="33" y="57" width="9" height="3" fill="#201b18"/><rect x="22" y="31" width="20" height="18" fill="#333845" stroke="#25282c" stroke-width="2"/><rect x="17" y="33" width="5" height="14" fill="#333845"/><rect x="42" y="33" width="5" height="14" fill="#333845"/><rect x="22" y="39" width="20" height="4" fill="#755b8e"/><rect x="29" y="31" width="6" height="3" fill="#755b8e"/><rect x="24" y="12" width="16" height="19" fill="#b49a71" stroke="#695743" stroke-width="2"/><rect x="28" y="20" width="3" height="3" fill="#17191b"/><rect x="33" y="20" width="3" height="3" fill="#17191b"/><rect x="30" y="26" width="4" height="2" fill="#695743"/><polygon points="26,14 29,5 33,15" fill="#b49a71"/><polygon points="38,14 35,5 31,15" fill="#b49a71"/><rect x="29" y="27" width="6" height="3" fill="#f0d9b0"/><polygon points="48,48 56,32 58,34 52,49" fill="#c7cbd0"/><rect x="49" y="47" width="9" height="3" fill="#75513a"/><polygon points="21,14 43,14 40,21 24,21" fill="#262a33"/></g></svg>