<svg xmlns="http://www.w3.org/2000/svg" viewBox="0 0 64 64" shape-rendering="crispEdges"><g transform="matrix(1.1800 0 0 1.1200 -12.2500 -7.5600)"><rect x="16" y="58" width="32" height="3" fill="#0e1520"/><rect x="20" y="61" width="24" height="2" fill="#070b12"/><rect x="23" y="47" width="7" height="12" fill="#3a3028"/><rect x="35" y="47" width="7" height="12" fill="#3a3028"/><rect x="22" y="57" width="9" height="3" fill="#201b18"/><rect x="34" y="57" width="9" height="3" fill="#201b18"/><rect x="20" y="31" width="24" height="18" fill="#8b5b3e" stroke="#25282c" stroke-width="2"/><rect x="15" y="33" width="5" height="14" fill="#8b5b3e"/><rect x="44" y="33" width="5" height="14" fill="#8b5b3e"/><rect x="20" y="39" width="24" height="4" fill="#e0c090"/><rect x="29" y="31" width="6" height="3" fill="#e0c090"/><rect x="23" y="13" width="18" height="18" fill="#8fd7cf" stroke="#456e73" stroke-width="2"/><rect x="27" y="21" width="3" height="3" fill="#ecffff"/><rect x="28" y="22" width="1" height="1" fill="#ffffff"/><rect x="34" y="21" width="3" height="3" fill="#ecffff"/><rect x="35" y="22" width="1" height="1" fill="#ffffff"/><rect x="30" y="27" width="4" height="2" fill="#cffffb"/><rect x="23" y="12" width="18" height="4" fill="#29434f"/><rect x="23" y="15" width="3" height="8" fill="#29434f"/><rect x="47" y="36" width="9" height="10" fill="#b87b45" stroke="#4a3222" stroke-width="2"/><rect x="55" y="38" width="5" height="6" fill="none" stroke="#b87b45" stroke-width="2"/></g></svg>