<svg xmlns="http://www.w3.org/2000/svg" viewBox="0 0 64 64" shape-rendering="crispEdges"><g transform="matrix(1.1800 0 0 1.0000 -11.6600 0.0000)"><rect x="16" y="58" width="32" height="3" fill="#16191d"/><rect x="20" y="61" width="24" height="2" fill="#0b0c0e"/><rect x="24" y="47" width="7" height="12" fill="#3a3028"/><rect x="34" y="47" width="7" height="12" fill="#3a3028"/><rect x="23" y="57" width="9" height="3" fill="#201b18"/><rect x="33" y="57" width="9" height="3" fill="#201b18"/><rect x="21" y="31" width="22" height="18" fill="#61714c" stroke="#25282c" stroke-width="2"/><rect x="16" y="33" width="5" height="14" fill="#61714c"/><rect x="43" y="33" width="5" height="14" fill="#61714c"/><rect x="21" y="39" width="22" height="4" fill="#c08b4d"/><rect x="28" y="31" width="8" height="3" fill="#c08b4d"/><rect x="23" y="13" width="18" height="18" fill="#d7c89c" stroke="#85775b" stroke-width="2"/><rect x="27" y="21" width="3" height="3" fill="#17191b"/><rect x="34" y="21" width="3" height="3" fill="#17191b"/><rect x="30" y="27" width="4" height="2" fill="#85775b"/><rect x="21" y="12" width="22" height="5" fill="#d7c16c"/><rect x="21" y="16" width="4" height="17" fill="#d7c16c"/><rect x="39" y="16" width="4" height="17" fill="#d7c16c"/><rect x="20" y="7" width="24" height="2" fill="#f5d96a"/><rect x="23" y="5" width="18" height="2" fill="#fff2ad"/><rect x="47" y="31" width="11" height="18" fill="#8f643b" stroke="#45321f" stroke-width="2"/><rect x="50" y="34" width="5" height="3" fill="#c99c5b"/></g></svg>