<svg xmlns="http://www.w3.org/2000/svg" width="64" height="64" viewBox="0 0 64 64" preserveAspectRatio="xMidYMid meet" shape-rendering="crispEdges"><g transform="matrix(1.1800 0 0 1.0000 -11.0700 0.0000)"><rect x="16" y="58" width="32" height="3" fill="#16191d"/><rect x="20" y="61" width="24" height="2" fill="#0b0c0e"/><rect x="25" y="47" width="7" height="12" fill="#3a3028"/><rect x="34" y="47" width="7" height="12" fill="#3a3028"/><rect x="24" y="57" width="9" height="3" fill="#201b18"/><rect x="33" y="57" width="9" height="3" fill="#201b18"/><rect x="22" y="31" width="20" height="18" fill="#4d7c59" stroke="#25282c" stroke-width="2"/><rect x="17" y="33" width="5" height="14" fill="#4d7c59"/><rect x="42" y="33" width="5" height="14" fill="#4d7c59"/><rect x="22" y="39" width="20" height="4" fill="#b48bd6"/><rect x="29" y="31" width="6" height="3" fill="#b48bd6"/><rect x="24" y="12" width="16" height="19" fill="#9a5572" stroke="#593043" stroke-width="2"/><rect x="28" y="20" width="3" height="3" fill="#17191b"/><rect x="33" y="20" width="3" height="3" fill="#17191b"/><rect x="30" y="26" width="4" height="2" fill="#593043"/><rect x="24" y="11" width="16" height="4" fill="#2d2534"/><rect x="24" y="14" width="3" height="8" fill="#2d2534"/><polygon points="27,14 22,3 32,12" fill="#593043"/><polygon points="37,14 42,3 32,12" fill="#593043"/><rect x="49" y="35" width="8" height="13" fill="#8b61a8" stroke="#39284b" stroke-width="2"/><rect x="51" y="31" width="4" height="5" fill="#d7d0c6"/><rect x="51" y="40" width="4" height="5" fill="#e06bc8"/></g></svg>