<svg xmlns="http://www.w3.org/2000/svg" width="64" height="64" viewBox="0 0 64 64" preserveAspectRatio="xMidYMid meet" shape-rendering="crispEdges"><g transform="matrix(1.1800 0 0 1.1200 -11.6600 -7.5600)"><rect x="16" y="58" width="32" height="3" fill="#171724"/><rect x="20" y="61" width="24" height="2" fill="#08080d"/><rect x="24" y="47" width="7" height="12" fill="#3a3028"/><rect x="34" y="47" width="7" height="12" fill="#3a3028"/><rect x="23" y="57" width="9" height="3" fill="#201b18"/><rect x="33" y="57" width="9" height="3" fill="#201b18"/><rect x="21" y="31" width="22" height="18" fill="#5d5a58" stroke="#25282c" stroke-width="2"/><rect x="16" y="33" width="5" height="14" fill="#5d5a58"/><rect x="43" y="33" width="5" height="14" fill="#5d5a58"/><rect x="21" y="39" width="22" height="4" fill="#d88d45"/><rect x="28" y="31" width="8" height="3" fill="#d88d45"/><rect x="23" y="13" width="18" height="18" fill="#d9d0e8" stroke="#76658f" stroke-width="2"/><rect x="27" y="21" width="3" height="3" fill="#b01d27"/><rect x="34" y="21" width="3" height="3" fill="#b01d27"/><rect x="30" y="27" width="4" height="2" fill="#76658f"/><rect x="30" y="29" width="1" height="2" fill="#f3f0f8"/><rect x="33" y="29" width="1" height="2" fill="#f3f0f8"/><rect x="21" y="12" width="22" height="5" fill="#1a1623"/><rect x="21" y="16" width="4" height="17" fill="#1a1623"/><rect x="39" y="16" width="4" height="17" fill="#1a1623"/><rect x="49" y="31" width="4" height="20" fill="#7a5335"/><rect x="44" y="28" width="14" height="6" fill="#9da4a8" stroke="#34383a" stroke-width="2"/><rect x="24" y="35" width="16" height="8" fill="#57483b"/><rect x="26" y="36" width="12" height="6" fill="#786353"/></g></svg>